<mxfile host="Electron" modified="2023-09-19T17:09:05.879Z" agent="Mozilla/5.0 (Windows NT 10.0; Win64; x64) AppleWebKit/537.36 (KHTML, like Gecko) draw.io/21.7.5 Chrome/114.0.5735.289 Electron/25.8.1 Safari/537.36" etag="MLjR8XC0vgzz9a5DwZdf" version="21.7.5" type="device">
  <diagram name="Страница — 1" id="7AEzNZl1RN6PEzxSpws9">
    <mxGraphModel dx="2107" dy="820" grid="1" gridSize="10" guides="1" tooltips="1" connect="1" arrows="1" fold="1" page="1" pageScale="1" pageWidth="827" pageHeight="1169" math="0" shadow="0">
      <root>
        <mxCell id="0" />
        <mxCell id="1" parent="0" />
        <mxCell id="LmPvN9MQtK0BJgV99dUh-6" value="User" style="swimlane;fontStyle=1;align=center;verticalAlign=top;childLayout=stackLayout;horizontal=1;startSize=26;horizontalStack=0;resizeParent=1;resizeParentMax=0;resizeLast=0;collapsible=1;marginBottom=0;whiteSpace=wrap;html=1;" parent="1" vertex="1">
          <mxGeometry x="440" y="280" width="160" height="190" as="geometry" />
        </mxCell>
        <mxCell id="LmPvN9MQtK0BJgV99dUh-7" value="-login: String&lt;br&gt;-password: int&lt;br&gt;-role: String&lt;br&gt;-listFilmWatched: String" style="text;strokeColor=none;fillColor=none;align=left;verticalAlign=top;spacingLeft=4;spacingRight=4;overflow=hidden;rotatable=0;points=[[0,0.5],[1,0.5]];portConstraint=eastwest;whiteSpace=wrap;html=1;" parent="LmPvN9MQtK0BJgV99dUh-6" vertex="1">
          <mxGeometry y="26" width="160" height="114" as="geometry" />
        </mxCell>
        <mxCell id="LmPvN9MQtK0BJgV99dUh-8" value="" style="line;strokeWidth=1;fillColor=none;align=left;verticalAlign=middle;spacingTop=-1;spacingLeft=3;spacingRight=3;rotatable=0;labelPosition=right;points=[];portConstraint=eastwest;strokeColor=inherit;" parent="LmPvN9MQtK0BJgV99dUh-6" vertex="1">
          <mxGeometry y="140" width="160" height="8" as="geometry" />
        </mxCell>
        <mxCell id="LmPvN9MQtK0BJgV99dUh-9" value="+ getters/setters" style="text;strokeColor=none;fillColor=none;align=left;verticalAlign=top;spacingLeft=4;spacingRight=4;overflow=hidden;rotatable=0;points=[[0,0.5],[1,0.5]];portConstraint=eastwest;whiteSpace=wrap;html=1;" parent="LmPvN9MQtK0BJgV99dUh-6" vertex="1">
          <mxGeometry y="148" width="160" height="42" as="geometry" />
        </mxCell>
        <mxCell id="LmPvN9MQtK0BJgV99dUh-22" value="listUser" style="swimlane;fontStyle=1;align=center;verticalAlign=top;childLayout=stackLayout;horizontal=1;startSize=26;horizontalStack=0;resizeParent=1;resizeParentMax=0;resizeLast=0;collapsible=1;marginBottom=0;whiteSpace=wrap;html=1;" parent="1" vertex="1">
          <mxGeometry x="670" y="280" width="160" height="232" as="geometry" />
        </mxCell>
        <mxCell id="LmPvN9MQtK0BJgV99dUh-23" value="-users: User[ ]" style="text;strokeColor=none;fillColor=none;align=left;verticalAlign=top;spacingLeft=4;spacingRight=4;overflow=hidden;rotatable=0;points=[[0,0.5],[1,0.5]];portConstraint=eastwest;whiteSpace=wrap;html=1;" parent="LmPvN9MQtK0BJgV99dUh-22" vertex="1">
          <mxGeometry y="26" width="160" height="144" as="geometry" />
        </mxCell>
        <mxCell id="LmPvN9MQtK0BJgV99dUh-24" value="" style="line;strokeWidth=1;fillColor=none;align=left;verticalAlign=middle;spacingTop=-1;spacingLeft=3;spacingRight=3;rotatable=0;labelPosition=right;points=[];portConstraint=eastwest;strokeColor=inherit;" parent="LmPvN9MQtK0BJgV99dUh-22" vertex="1">
          <mxGeometry y="170" width="160" height="8" as="geometry" />
        </mxCell>
        <mxCell id="LmPvN9MQtK0BJgV99dUh-25" value="+ getters/setters" style="text;strokeColor=none;fillColor=none;align=left;verticalAlign=top;spacingLeft=4;spacingRight=4;overflow=hidden;rotatable=0;points=[[0,0.5],[1,0.5]];portConstraint=eastwest;whiteSpace=wrap;html=1;" parent="LmPvN9MQtK0BJgV99dUh-22" vertex="1">
          <mxGeometry y="178" width="160" height="54" as="geometry" />
        </mxCell>
        <mxCell id="LmPvN9MQtK0BJgV99dUh-34" value="film" style="swimlane;fontStyle=1;align=center;verticalAlign=top;childLayout=stackLayout;horizontal=1;startSize=26;horizontalStack=0;resizeParent=1;resizeParentMax=0;resizeLast=0;collapsible=1;marginBottom=0;whiteSpace=wrap;html=1;" parent="1" vertex="1">
          <mxGeometry x="240" y="40" width="160" height="208" as="geometry" />
        </mxCell>
        <mxCell id="LmPvN9MQtK0BJgV99dUh-35" value="-id: int&lt;br&gt;-title: String&lt;br&gt;-genre: String&lt;br&gt;-country: String&lt;br&gt;-date: int&lt;br&gt;-raiting: float&lt;br&gt;-listActors: String" style="text;strokeColor=none;fillColor=none;align=left;verticalAlign=top;spacingLeft=4;spacingRight=4;overflow=hidden;rotatable=0;points=[[0,0.5],[1,0.5]];portConstraint=eastwest;whiteSpace=wrap;html=1;" parent="LmPvN9MQtK0BJgV99dUh-34" vertex="1">
          <mxGeometry y="26" width="160" height="134" as="geometry" />
        </mxCell>
        <mxCell id="LmPvN9MQtK0BJgV99dUh-36" value="" style="line;strokeWidth=1;fillColor=none;align=left;verticalAlign=middle;spacingTop=-1;spacingLeft=3;spacingRight=3;rotatable=0;labelPosition=right;points=[];portConstraint=eastwest;strokeColor=inherit;" parent="LmPvN9MQtK0BJgV99dUh-34" vertex="1">
          <mxGeometry y="160" width="160" height="8" as="geometry" />
        </mxCell>
        <mxCell id="LmPvN9MQtK0BJgV99dUh-37" value="+getters/setters" style="text;strokeColor=none;fillColor=none;align=left;verticalAlign=top;spacingLeft=4;spacingRight=4;overflow=hidden;rotatable=0;points=[[0,0.5],[1,0.5]];portConstraint=eastwest;whiteSpace=wrap;html=1;" parent="LmPvN9MQtK0BJgV99dUh-34" vertex="1">
          <mxGeometry y="168" width="160" height="40" as="geometry" />
        </mxCell>
        <mxCell id="LmPvN9MQtK0BJgV99dUh-42" value="&lt;blockquote style=&quot;margin: 0 0 0 40px; border: none; padding: 0px;&quot;&gt;Меню:&lt;/blockquote&gt;&lt;blockquote style=&quot;margin: 0 0 0 40px; border: none; padding: 0px;&quot;&gt;&lt;ol&gt;&lt;li&gt;Поиск фильма по названию&lt;/li&gt;&lt;li&gt;Поиск фильма по году&lt;/li&gt;&lt;li&gt;Поиск фильма по стране&lt;/li&gt;&lt;li&gt;Поиск фильма по жанру&lt;/li&gt;&lt;li&gt;Вывести топ лучших фильмов&lt;/li&gt;&lt;li&gt;Вывести мой список фильмов&lt;/li&gt;&lt;li&gt;Добавить фильм в свой список&lt;/li&gt;&lt;li&gt;Удалить фильм из своего списка&lt;/li&gt;&lt;/ol&gt;ДОП МЕНЮ ДЛЯ Admina&amp;nbsp;&lt;/blockquote&gt;&lt;blockquote style=&quot;margin: 0 0 0 40px; border: none; padding: 0px;&quot;&gt;&lt;ul&gt;&lt;li&gt;Добавить фильм&lt;/li&gt;&lt;li&gt;Удалить фильм&lt;/li&gt;&lt;/ul&gt;&lt;/blockquote&gt;" style="rounded=1;whiteSpace=wrap;html=1;absoluteArcSize=1;arcSize=14;strokeWidth=2;align=left;" parent="1" vertex="1">
          <mxGeometry x="-20" y="420" width="270" height="370" as="geometry" />
        </mxCell>
        <mxCell id="LmPvN9MQtK0BJgV99dUh-44" value="listFilm" style="swimlane;fontStyle=1;align=center;verticalAlign=top;childLayout=stackLayout;horizontal=1;startSize=26;horizontalStack=0;resizeParent=1;resizeParentMax=0;resizeLast=0;collapsible=1;marginBottom=0;whiteSpace=wrap;html=1;" parent="1" vertex="1">
          <mxGeometry x="10" y="40" width="160" height="232" as="geometry" />
        </mxCell>
        <mxCell id="LmPvN9MQtK0BJgV99dUh-45" value="-films: Film[ ]" style="text;strokeColor=none;fillColor=none;align=left;verticalAlign=top;spacingLeft=4;spacingRight=4;overflow=hidden;rotatable=0;points=[[0,0.5],[1,0.5]];portConstraint=eastwest;whiteSpace=wrap;html=1;" parent="LmPvN9MQtK0BJgV99dUh-44" vertex="1">
          <mxGeometry y="26" width="160" height="144" as="geometry" />
        </mxCell>
        <mxCell id="LmPvN9MQtK0BJgV99dUh-46" value="" style="line;strokeWidth=1;fillColor=none;align=left;verticalAlign=middle;spacingTop=-1;spacingLeft=3;spacingRight=3;rotatable=0;labelPosition=right;points=[];portConstraint=eastwest;strokeColor=inherit;" parent="LmPvN9MQtK0BJgV99dUh-44" vertex="1">
          <mxGeometry y="170" width="160" height="8" as="geometry" />
        </mxCell>
        <mxCell id="LmPvN9MQtK0BJgV99dUh-47" value="+getters/setters" style="text;strokeColor=none;fillColor=none;align=left;verticalAlign=top;spacingLeft=4;spacingRight=4;overflow=hidden;rotatable=0;points=[[0,0.5],[1,0.5]];portConstraint=eastwest;whiteSpace=wrap;html=1;" parent="LmPvN9MQtK0BJgV99dUh-44" vertex="1">
          <mxGeometry y="178" width="160" height="54" as="geometry" />
        </mxCell>
        <mxCell id="LmPvN9MQtK0BJgV99dUh-50" value="Use" style="endArrow=open;endSize=12;dashed=1;html=1;rounded=0;exitX=0.005;exitY=0.388;exitDx=0;exitDy=0;exitPerimeter=0;entryX=1;entryY=0.5;entryDx=0;entryDy=0;" parent="1" source="LmPvN9MQtK0BJgV99dUh-23" target="LmPvN9MQtK0BJgV99dUh-7" edge="1">
          <mxGeometry width="160" relative="1" as="geometry">
            <mxPoint x="360" y="260" as="sourcePoint" />
            <mxPoint x="520" y="260" as="targetPoint" />
          </mxGeometry>
        </mxCell>
        <mxCell id="LmPvN9MQtK0BJgV99dUh-49" value="Use" style="endArrow=open;endSize=12;dashed=1;html=1;rounded=0;exitX=1;exitY=0.374;exitDx=0;exitDy=0;entryX=0.003;entryY=0.407;entryDx=0;entryDy=0;entryPerimeter=0;exitPerimeter=0;" parent="1" source="LmPvN9MQtK0BJgV99dUh-45" target="LmPvN9MQtK0BJgV99dUh-35" edge="1">
          <mxGeometry width="160" relative="1" as="geometry">
            <mxPoint x="200" y="140" as="sourcePoint" />
            <mxPoint x="460" y="252" as="targetPoint" />
          </mxGeometry>
        </mxCell>
        <mxCell id="WgNDuBf1NtliNz7PBogX-1" value="userRole&lt;br&gt;Admin&lt;br&gt;Common" style="html=1;whiteSpace=wrap;" parent="1" vertex="1">
          <mxGeometry x="445" y="120" width="150" height="80" as="geometry" />
        </mxCell>
        <mxCell id="WgNDuBf1NtliNz7PBogX-2" value="Use" style="endArrow=open;endSize=12;dashed=1;html=1;rounded=0;exitX=0.5;exitY=1;exitDx=0;exitDy=0;entryX=0.5;entryY=0;entryDx=0;entryDy=0;" parent="1" source="WgNDuBf1NtliNz7PBogX-1" target="LmPvN9MQtK0BJgV99dUh-6" edge="1">
          <mxGeometry width="160" relative="1" as="geometry">
            <mxPoint x="310" y="270" as="sourcePoint" />
            <mxPoint x="470" y="270" as="targetPoint" />
          </mxGeometry>
        </mxCell>
        <mxCell id="WgNDuBf1NtliNz7PBogX-4" value="listFilmWatched" style="swimlane;fontStyle=1;align=center;verticalAlign=top;childLayout=stackLayout;horizontal=1;startSize=26;horizontalStack=0;resizeParent=1;resizeParentMax=0;resizeLast=0;collapsible=1;marginBottom=0;whiteSpace=wrap;html=1;" parent="1" vertex="1">
          <mxGeometry x="330" y="520" width="160" height="188" as="geometry" />
        </mxCell>
        <mxCell id="WgNDuBf1NtliNz7PBogX-5" value="-idFilm: int&lt;br&gt;-title: String&lt;br&gt;-raiting: int" style="text;strokeColor=none;fillColor=none;align=left;verticalAlign=top;spacingLeft=4;spacingRight=4;overflow=hidden;rotatable=0;points=[[0,0.5],[1,0.5]];portConstraint=eastwest;whiteSpace=wrap;html=1;" parent="WgNDuBf1NtliNz7PBogX-4" vertex="1">
          <mxGeometry y="26" width="160" height="128" as="geometry" />
        </mxCell>
        <mxCell id="WgNDuBf1NtliNz7PBogX-6" value="" style="line;strokeWidth=1;fillColor=none;align=left;verticalAlign=middle;spacingTop=-1;spacingLeft=3;spacingRight=3;rotatable=0;labelPosition=right;points=[];portConstraint=eastwest;strokeColor=inherit;" parent="WgNDuBf1NtliNz7PBogX-4" vertex="1">
          <mxGeometry y="154" width="160" height="8" as="geometry" />
        </mxCell>
        <mxCell id="WgNDuBf1NtliNz7PBogX-7" value="+getters/setters" style="text;strokeColor=none;fillColor=none;align=left;verticalAlign=top;spacingLeft=4;spacingRight=4;overflow=hidden;rotatable=0;points=[[0,0.5],[1,0.5]];portConstraint=eastwest;whiteSpace=wrap;html=1;" parent="WgNDuBf1NtliNz7PBogX-4" vertex="1">
          <mxGeometry y="162" width="160" height="26" as="geometry" />
        </mxCell>
        <mxCell id="WgNDuBf1NtliNz7PBogX-8" value="Use" style="endArrow=open;endSize=12;dashed=1;html=1;rounded=0;entryX=0.752;entryY=1.208;entryDx=0;entryDy=0;entryPerimeter=0;" parent="1" target="LmPvN9MQtK0BJgV99dUh-37" edge="1">
          <mxGeometry width="160" relative="1" as="geometry">
            <mxPoint x="360" y="510" as="sourcePoint" />
            <mxPoint x="480" y="370" as="targetPoint" />
          </mxGeometry>
        </mxCell>
        <mxCell id="WgNDuBf1NtliNz7PBogX-9" value="Use" style="endArrow=open;endSize=12;dashed=1;html=1;rounded=0;exitX=0.835;exitY=-0.02;exitDx=0;exitDy=0;exitPerimeter=0;" parent="1" source="WgNDuBf1NtliNz7PBogX-4" edge="1">
          <mxGeometry width="160" relative="1" as="geometry">
            <mxPoint x="320" y="370" as="sourcePoint" />
            <mxPoint x="464" y="470" as="targetPoint" />
          </mxGeometry>
        </mxCell>
        <mxCell id="WgNDuBf1NtliNz7PBogX-10" value="&lt;blockquote style=&quot;margin: 0 0 0 40px; border: none; padding: 0px;&quot;&gt;Войти/Зарегистрироваться&lt;/blockquote&gt;" style="rounded=1;whiteSpace=wrap;html=1;absoluteArcSize=1;arcSize=14;strokeWidth=2;align=center;" parent="1" vertex="1">
          <mxGeometry x="-20" y="330" width="270" height="54" as="geometry" />
        </mxCell>
        <mxCell id="WgNDuBf1NtliNz7PBogX-13" value="&lt;b style=&quot;font-size: 14px;&quot;&gt;&lt;font color=&quot;#333333&quot; face=&quot;Verdana&quot;&gt;&amp;nbsp;Программа для просмотра фильмов, где можно добавить понравившийся фильм в свой список, найти фильм по жанру, рейтингу, году, стране и названию. &lt;br&gt;&amp;nbsp;Каждому фильму можно поставить оценку, из которых потом формируется рейтинг.&lt;/font&gt;&lt;/b&gt;" style="verticalAlign=top;align=left;spacingTop=8;spacingLeft=2;spacingRight=12;shape=cube;size=10;direction=south;fontStyle=4;html=1;whiteSpace=wrap;fillColor=#dae8fc;strokeColor=#6c8ebf;" parent="1" vertex="1">
          <mxGeometry x="660" y="20" width="380" height="150" as="geometry" />
        </mxCell>
      </root>
    </mxGraphModel>
  </diagram>
</mxfile>
